<svg xmlns="http://www.w3.org/2000/svg" viewBox="0 0 128 128">
  <defs>
    <style>
      .bg{fill:#0b2238;stroke:#7ceaff;stroke-width:3}
      .ankle{fill:none;stroke:#ffffff;stroke-width:7;stroke-linecap:round;stroke-linejoin:round}
      .accent{fill:none;stroke:#7ceaff;stroke-width:6;stroke-linecap:round;stroke-linejoin:round}
      .warn{fill:none;stroke:#ffcf5a;stroke-width:5;stroke-linecap:round;stroke-linejoin:round}
    </style>
  </defs>
  <circle class="bg" cx="64" cy="64" r="58"/>
  <path class="ankle" d="M53 25c6 18 6 34 0 49"/>
  <path class="ankle" d="M74 28c-2 15 2 29 11 42"/>
  <path class="ankle" d="M35 94h52c11 0 19-6 24-15"/>
  <path class="accent" d="M50 75c12 8 27 8 43 0"/>
  <path class="warn" d="M32 55c-10 8-10 20 0 28"/>
  <path class="warn" d="M27 58l5-3 1 7"/>
  <path class="warn" d="M101 45c10 8 10 20 0 28"/>
  <path class="warn" d="M106 70l-5 3-1-7"/>
</svg>
